<svg xmlns="http://www.w3.org/2000/svg" width="555.776" height="302.31" viewBox="0 0 555.776 302.31">
  <g id="title" transform="translate(-494.308 -162.109)">
    <path id="빼기_1" data-name="빼기 1" d="M109.012,323.919a35.321,35.321,0,0,1-12.019-1.969,26.953,26.953,0,0,1-9.343-5.606,25.1,25.1,0,0,1-6.009-8.686,29.088,29.088,0,0,1-2.12-11.312,32.155,32.155,0,0,1,2.02-11.665,24.653,24.653,0,0,1,5.757-8.838,25.627,25.627,0,0,1,9.04-5.605,34.342,34.342,0,0,1,11.968-1.969,33.611,33.611,0,0,1,11.817,1.969,24.027,24.027,0,0,1,8.887,5.706,24.921,24.921,0,0,1,5.556,9.141,36.379,36.379,0,0,1,1.919,12.17v1.92H98c0,3.92.934,6.9,2.778,8.863s4.647,2.954,8.333,2.954a10.892,10.892,0,0,0,5.227-1.212,10.126,10.126,0,0,0,3.762-3.636h17.675a27.041,27.041,0,0,1-3.68,7.777,21.409,21.409,0,0,1-5.688,5.555,25.062,25.062,0,0,1-7.7,3.333A39.406,39.406,0,0,1,109.012,323.919Zm-.2-43.834a10.52,10.52,0,0,0-6.918,2.221,10.1,10.1,0,0,0-3.384,6.262h20.907a11.04,11.04,0,0,0-3.737-6.161A10.514,10.514,0,0,0,108.81,280.085Zm296.233,43.53a25.866,25.866,0,0,1-10.4-2.07,25.205,25.205,0,0,1-8.282-5.808,26.917,26.917,0,0,1-5.5-8.787,30.181,30.181,0,0,1-1.97-11.01,29.347,29.347,0,0,1,1.919-10.554,27.282,27.282,0,0,1,5.353-8.736,25.37,25.37,0,0,1,8.181-5.909,25.06,25.06,0,0,1,10.5-2.172,22.7,22.7,0,0,1,8.863,1.692,21.147,21.147,0,0,1,7.2,5.075v-5.151h18.382V322H420.9v-5.757a19.065,19.065,0,0,1-6.894,5.53A21.115,21.115,0,0,1,405.043,323.616Zm4.646-39.289a12.1,12.1,0,0,0-4.7.909,11.156,11.156,0,0,0-3.738,2.525,12.506,12.506,0,0,0-2.474,3.687,11.106,11.106,0,0,0-.909,4.494,12.086,12.086,0,0,0,3.383,8.484,11.174,11.174,0,0,0,3.738,2.525,12.1,12.1,0,0,0,4.7.909,11.836,11.836,0,0,0,4.6-.909,11.158,11.158,0,0,0,3.737-2.525,13.117,13.117,0,0,0,2.525-3.737,10.944,10.944,0,0,0,.959-4.545,11.289,11.289,0,0,0-.959-4.6,12.909,12.909,0,0,0-2.525-3.788,11.144,11.144,0,0,0-3.737-2.525A11.835,11.835,0,0,0,409.689,284.327ZM370.7,322H352.422V295.841a28.317,28.317,0,0,0-.555-6.211,7.735,7.735,0,0,0-1.97-3.788,6.958,6.958,0,0,0-2.727-1.717,10.2,10.2,0,0,0-3.232-.5,9.076,9.076,0,0,0-7.12,2.777c-1.642,1.844-2.475,4.512-2.475,7.929V322H316.062V270.187h18.281v6.565a20.1,20.1,0,0,1,7.575-6.11,23.8,23.8,0,0,1,8.989-1.566,22.561,22.561,0,0,1,9.342,1.768,18.711,18.711,0,0,1,6.616,5,14.421,14.421,0,0,1,3.029,5.858,30.626,30.626,0,0,1,.808,7.373V322Zm-93.526,0H258.9V296.447a31.135,31.135,0,0,0-.555-6.465,10.257,10.257,0,0,0-1.616-3.938,5.377,5.377,0,0,0-2.474-1.92,8.984,8.984,0,0,0-3.03-.5,7.487,7.487,0,0,0-6.59,3.207c-1.458,2.128-2.2,5.365-2.2,9.621V322H224.152V296.447a34.961,34.961,0,0,0-.5-6.515,12.05,12.05,0,0,0-1.465-4.091,4.913,4.913,0,0,0-2.474-2.07,10.288,10.288,0,0,0-3.535-.556,10.176,10.176,0,0,0-3.232.506,5.762,5.762,0,0,0-2.677,1.969,10.8,10.8,0,0,0-1.818,4.04,28.176,28.176,0,0,0-.656,6.717V322H189.509V270.187H207.79v6.363a26.706,26.706,0,0,1,7.928-5.378,22.342,22.342,0,0,1,8.838-1.793,20.763,20.763,0,0,1,10.15,2.424,20.511,20.511,0,0,1,7.423,7.272,21,21,0,0,1,7.474-7.348,20.487,20.487,0,0,1,10.1-2.449,22.006,22.006,0,0,1,6.868,1.06,14.177,14.177,0,0,1,5.555,3.333,16.027,16.027,0,0,1,3.686,5.909,25.22,25.22,0,0,1,1.363,8.788V322Zm190.588,0H449.483V238.17h18.281Zm-162,0H287.479V270.187H305.76Zm-142.814,0H144.665V270.187h18.281v8.483a21.1,21.1,0,0,1,7.171-7.12,19.374,19.374,0,0,1,9.9-2.475h1.565a11.178,11.178,0,0,1,1.969.2v17.473a17.452,17.452,0,0,0-7.878-1.818,15.1,15.1,0,0,0-5.567.947,9.887,9.887,0,0,0-3.977,2.841c-2.111,2.512-3.182,6.233-3.182,11.059V322Zm-99.081,0h-19.8V262.612H27.808V245.846H80.126v16.766H63.865Zm232.7-61.408a10,10,0,0,1-3.99-.808,10.479,10.479,0,0,1-5.5-5.5,10.251,10.251,0,0,1,0-7.979,10.479,10.479,0,0,1,5.5-5.5,10.252,10.252,0,0,1,7.979,0,10.479,10.479,0,0,1,5.5,5.5,10.251,10.251,0,0,1,0,7.979,10.479,10.479,0,0,1-5.5,5.5A10,10,0,0,1,296.569,260.592Zm-12.625-48.673a36.566,36.566,0,0,1-12.322-2.02,28.558,28.558,0,0,1-9.746-5.757,26.821,26.821,0,0,1-6.413-8.938,28.175,28.175,0,0,1-2.323-11.565,25.321,25.321,0,0,1,2.323-10.756,26.512,26.512,0,0,1,6.464-8.686,30.867,30.867,0,0,1,9.848-5.808,35.7,35.7,0,0,1,12.473-2.121,36.17,36.17,0,0,1,12.372,2.071,30.765,30.765,0,0,1,9.9,5.756,25.936,25.936,0,0,1,6.514,8.788,26.969,26.969,0,0,1,2.323,11.261,26.487,26.487,0,0,1-2.373,11.262,26.859,26.859,0,0,1-6.514,8.788,29.32,29.32,0,0,1-9.949,5.706A38.211,38.211,0,0,1,283.944,211.919Zm.3-39.794a11.835,11.835,0,0,0-4.6.909,11.144,11.144,0,0,0-3.737,2.525,13.116,13.116,0,0,0-2.525,3.737,10.944,10.944,0,0,0-.959,4.545,11.787,11.787,0,0,0,.959,4.8,12.911,12.911,0,0,0,2.525,3.788,11.142,11.142,0,0,0,3.737,2.524,12.07,12.07,0,0,0,9.191,0,11.143,11.143,0,0,0,3.737-2.524,12.908,12.908,0,0,0,2.525-3.788,11.535,11.535,0,0,0,.959-4.7,11.29,11.29,0,0,0-.959-4.6,12.906,12.906,0,0,0-2.525-3.787,11.146,11.146,0,0,0-3.737-2.525A11.836,11.836,0,0,0,284.247,172.125Zm-60.8,39.794a37.7,37.7,0,0,1-10.428-1.49,45.314,45.314,0,0,1-10.276-4.47l6.665-12.928a33.662,33.662,0,0,0,7.474,3.939,20.848,20.848,0,0,0,7.07,1.313,7.187,7.187,0,0,0,4.141-1.111,3.335,3.335,0,0,0,1.616-2.828,4.719,4.719,0,0,0-.253-1.667,2.723,2.723,0,0,0-1.06-1.211,8.476,8.476,0,0,0-2.373-1.011c-1.046-.3-2.422-.626-4.09-.959-5.63-1.139-9.622-2.855-11.867-5.1s-3.384-5.388-3.384-9.343a18.472,18.472,0,0,1,1.616-7.827,16.287,16.287,0,0,1,4.646-5.908,21.9,21.9,0,0,1,7.322-3.737,32.693,32.693,0,0,1,9.544-1.313,43.519,43.519,0,0,1,16.665,3.333l-6.161,11.919a21.445,21.445,0,0,0-9.9-2.626,7.469,7.469,0,0,0-4.09,1.01,3.116,3.116,0,0,0-1.566,2.727,3.59,3.59,0,0,0,.253,1.464,2.615,2.615,0,0,0,1.111,1.061,9.708,9.708,0,0,0,2.525.909c1.1.267,2.581.607,4.393,1.01,5.027,1.005,8.833,2.823,11.312,5.4a13.828,13.828,0,0,1,3.737,9.949,18.122,18.122,0,0,1-1.818,8.181,17.473,17.473,0,0,1-5.05,6.11,24.109,24.109,0,0,1-7.777,3.839A34.846,34.846,0,0,1,223.445,211.919Zm-97.667,0a35.321,35.321,0,0,1-12.019-1.97,26.965,26.965,0,0,1-9.343-5.605,25.094,25.094,0,0,1-6.009-8.686,29.087,29.087,0,0,1-2.121-11.312,32.156,32.156,0,0,1,2.021-11.666,24.63,24.63,0,0,1,5.757-8.837,25.622,25.622,0,0,1,9.039-5.606,34.372,34.372,0,0,1,11.969-1.969,33.637,33.637,0,0,1,11.817,1.969,24.028,24.028,0,0,1,8.887,5.707,24.914,24.914,0,0,1,5.556,9.14,36.389,36.389,0,0,1,1.919,12.171v1.919H114.769c0,3.92.934,6.9,2.778,8.863s4.647,2.954,8.333,2.954a10.893,10.893,0,0,0,5.227-1.212,10.121,10.121,0,0,0,3.762-3.636h17.675a27.043,27.043,0,0,1-3.68,7.777,21.409,21.409,0,0,1-5.688,5.555,25.059,25.059,0,0,1-7.695,3.333A39.406,39.406,0,0,1,125.778,211.919Zm-.2-43.835a10.515,10.515,0,0,0-6.918,2.222,10.1,10.1,0,0,0-3.384,6.262h20.907a11.046,11.046,0,0,0-3.737-6.161A10.514,10.514,0,0,0,125.576,168.085Zm287.042,43.531a25.85,25.85,0,0,1-10.4-2.071,25.2,25.2,0,0,1-8.283-5.807,26.952,26.952,0,0,1-5.5-8.788,30.18,30.18,0,0,1-1.969-11.009,29.338,29.338,0,0,1,1.919-10.554,27.264,27.264,0,0,1,5.353-8.736,25.345,25.345,0,0,1,8.181-5.908,25.06,25.06,0,0,1,10.5-2.172,22.706,22.706,0,0,1,8.863,1.692,21.135,21.135,0,0,1,7.2,5.075v-5.152h18.382V210H428.475v-5.756a19.064,19.064,0,0,1-6.893,5.529A21.115,21.115,0,0,1,412.618,211.616Zm4.647-39.29a12.1,12.1,0,0,0-4.7.909,11.178,11.178,0,0,0-3.737,2.525,12.487,12.487,0,0,0-2.474,3.686,11.1,11.1,0,0,0-.909,4.495,12.09,12.09,0,0,0,3.383,8.484,11.161,11.161,0,0,0,3.737,2.524,12.089,12.089,0,0,0,4.7.909,11.827,11.827,0,0,0,4.6-.909,11.162,11.162,0,0,0,3.737-2.524,13.11,13.11,0,0,0,2.525-3.738,10.957,10.957,0,0,0,.959-4.545,11.31,11.31,0,0,0-.959-4.6,12.916,12.916,0,0,0-2.525-3.787,11.179,11.179,0,0,0-3.737-2.525A11.843,11.843,0,0,0,417.264,172.327ZM378.278,210H360V183.841a28.266,28.266,0,0,0-.556-6.212,7.726,7.726,0,0,0-1.969-3.787,6.96,6.96,0,0,0-2.727-1.717,10.2,10.2,0,0,0-3.232-.5,9.078,9.078,0,0,0-7.121,2.777c-1.642,1.842-2.474,4.51-2.474,7.928V210H323.637V158.187h18.281v6.566a20.108,20.108,0,0,1,7.575-6.111,23.817,23.817,0,0,1,8.988-1.565,22.564,22.564,0,0,1,9.343,1.768,18.715,18.715,0,0,1,6.615,5,14.423,14.423,0,0,1,3.03,5.858,30.625,30.625,0,0,1,.808,7.373V210Zm97.06,0H457.058V126.17h18.281Zm-295.627,0H161.431V158.187h18.281v8.484a21.1,21.1,0,0,1,7.171-7.121,19.375,19.375,0,0,1,9.9-2.474h1.565a11.26,11.26,0,0,1,1.969.2v17.473a17.441,17.441,0,0,0-7.878-1.818,15.106,15.106,0,0,0-5.567.947,9.887,9.887,0,0,0-3.977,2.84c-2.111,2.513-3.182,6.234-3.182,11.059V210ZM54.775,210h-19.8V133.846H66.491a35.377,35.377,0,0,1,11.324,1.666,21.757,21.757,0,0,1,8.32,5,21.246,21.246,0,0,1,5.113,8.03,34.795,34.795,0,0,1,0,21.513,21.245,21.245,0,0,1-5.113,8.029,21.755,21.755,0,0,1-8.32,5,35.373,35.373,0,0,1-11.324,1.667H54.775V210Zm0-60.2v18.988H61.34c3.619,0,6.371-.8,8.181-2.374s2.727-3.971,2.727-7.12-.918-5.546-2.727-7.121S64.959,149.8,61.34,149.8Zm217.554-25.947h-20.5L269.5,90.93,244.453,46.187h21.21L279.5,72.75l13.433-26.563h21.008l-41.611,77.669Zm-121.806-7.777H150.5V103.454h.023v12.624ZM242.231,98H223.95V72.447a31.081,31.081,0,0,0-.555-6.465,10.254,10.254,0,0,0-1.615-3.938,5.373,5.373,0,0,0-2.475-1.919,8.961,8.961,0,0,0-3.03-.506,7.487,7.487,0,0,0-6.59,3.207c-1.458,2.128-2.2,5.365-2.2,9.621V98H189.206V72.447a34.961,34.961,0,0,0-.5-6.515,12.08,12.08,0,0,0-1.464-4.09,4.919,4.919,0,0,0-2.475-2.07,11.065,11.065,0,0,0-6.767-.05,5.763,5.763,0,0,0-2.677,1.969,10.8,10.8,0,0,0-1.818,4.04,28.177,28.177,0,0,0-.656,6.717V98H154.563V46.187h18.281V52.55a26.707,26.707,0,0,1,7.929-5.378,22.341,22.341,0,0,1,8.838-1.793A20.764,20.764,0,0,1,199.761,47.8a20.505,20.505,0,0,1,7.423,7.272,21,21,0,0,1,7.474-7.347,20.487,20.487,0,0,1,10.1-2.449,22.006,22.006,0,0,1,6.868,1.06,14.169,14.169,0,0,1,5.555,3.334,16.012,16.012,0,0,1,3.687,5.909,25.21,25.21,0,0,1,1.364,8.787V98Z" transform="translate(467 140)" fill="#fff" stroke="rgba(0,0,0,0)" stroke-miterlimit="10" stroke-width="1"/>
    <path id="패스_26" data-name="패스 26" d="M2.491-4.512A5.482,5.482,0,0,1,2.914-6.65,5.43,5.43,0,0,1,4.089-8.413,5.43,5.43,0,0,1,5.852-9.588a5.482,5.482,0,0,1,2.139-.423,5.482,5.482,0,0,1,2.138.423,5.43,5.43,0,0,1,1.762,1.175A5.43,5.43,0,0,1,13.066-6.65a5.482,5.482,0,0,1,.423,2.138,5.482,5.482,0,0,1-.423,2.138A5.43,5.43,0,0,1,11.891-.611,5.43,5.43,0,0,1,10.128.564,5.482,5.482,0,0,1,7.99.987,5.482,5.482,0,0,1,5.852.564,5.43,5.43,0,0,1,4.089-.611,5.43,5.43,0,0,1,2.914-2.374,5.482,5.482,0,0,1,2.491-4.512Zm24.863-12.5V0H18.847V-17.014h-2.82v-7.1h2.82v-7.238h8.507v7.238h4.841v7.1Zm25.1,1.457a5.118,5.118,0,0,0-1.739-2.867,4.871,4.871,0,0,0-3.2-1.081A4.873,4.873,0,0,0,44.3-18.471a4.681,4.681,0,0,0-1.575,2.914Zm-9.964,4.935q0,5.5,5.17,5.5a4.618,4.618,0,0,0,4.183-2.256h8.225Q57.575.893,47.611.893a16.362,16.362,0,0,1-5.593-.916,12.485,12.485,0,0,1-4.347-2.608,11.626,11.626,0,0,1-2.8-4.042,13.472,13.472,0,0,1-.987-5.264,14.892,14.892,0,0,1,.94-5.429,11.417,11.417,0,0,1,2.679-4.112,11.87,11.87,0,0,1,4.207-2.608A15.911,15.911,0,0,1,47.282-25a15.571,15.571,0,0,1,5.5.917,11.13,11.13,0,0,1,4.136,2.656A11.54,11.54,0,0,1,59.5-17.178a16.849,16.849,0,0,1,.893,5.663v.893Zm37.694-7.285a9.941,9.941,0,0,0-4.606-1.222,3.461,3.461,0,0,0-1.9.47,1.444,1.444,0,0,0-.729,1.269,1.664,1.664,0,0,0,.118.681,1.213,1.213,0,0,0,.517.493,4.484,4.484,0,0,0,1.175.423q.776.188,2.045.47a9.767,9.767,0,0,1,5.264,2.514A6.407,6.407,0,0,1,83.8-8.178a8.4,8.4,0,0,1-.846,3.807A8.1,8.1,0,0,1,80.6-1.527,11.169,11.169,0,0,1,76.986.259a16.143,16.143,0,0,1-4.653.634A18.909,18.909,0,0,1,62.7-1.88L65.8-7.9a12.119,12.119,0,0,0,6.768,2.444,3.33,3.33,0,0,0,1.927-.517,1.546,1.546,0,0,0,.752-1.316,2.184,2.184,0,0,0-.117-.776,1.264,1.264,0,0,0-.493-.564,3.933,3.933,0,0,0-1.1-.47q-.728-.211-1.9-.446-3.948-.8-5.522-2.374a5.875,5.875,0,0,1-1.575-4.347,8.557,8.557,0,0,1,.752-3.643,7.542,7.542,0,0,1,2.162-2.749,10.135,10.135,0,0,1,3.408-1.739A15.146,15.146,0,0,1,75.294-25a20.153,20.153,0,0,1,7.755,1.551Zm17.061.893V0H88.736V-17.014h-2.82v-7.1h2.82v-7.238h8.507v7.238h4.841v7.1Z" transform="translate(948 462)" fill="#fff"/>
    <path id="교차_1" data-name="교차 1" d="M101.458,112.079V99.454h57.065v12.625ZM44.6,70.265,71.158,55.317,44.6,40.268V18.957l49.49,27.372V64.407L44.6,91.778Z" transform="translate(459 144)" fill="#4d21d4" stroke="rgba(0,0,0,0)" stroke-miterlimit="10" stroke-width="1"/>
  </g>
</svg>
