<svg xmlns="http://www.w3.org/2000/svg" xmlns:xlink="http://www.w3.org/1999/xlink" width="644" height="493" viewBox="0 0 644 493">
  <defs>
    <clipPath id="clip-path">
      <rect id="사각형_1" data-name="사각형 1" width="505.234" height="396.625" fill="none"/>
    </clipPath>
    <clipPath id="clip-path-2">
      <rect id="사각형_2" data-name="사각형 2" width="35.664" height="45.961" fill="none"/>
    </clipPath>
    <clipPath id="clip-path-3">
      <rect id="사각형_2-2" data-name="사각형 2" width="35.664" height="45.961" fill="#ecbb3f"/>
    </clipPath>
    <clipPath id="clip-path-4">
      <rect id="사각형_2-3" data-name="사각형 2" width="24.096" height="31.053" fill="#ff4931"/>
    </clipPath>
  </defs>
  <g id="visual-img" transform="translate(-449.876 -560.686)">
    <g id="그룹_2" data-name="그룹 2" transform="translate(518.591 612.464)">
      <g id="그룹_1" data-name="그룹 1" clip-path="url(#clip-path)">
        <path id="패스_1" data-name="패스 1" d="M333.082,123.006v-.323a33.142,33.142,0,0,0-33.144-33.142l-31.491,0c-16.635,0-46.169.526-97.316.813a33.137,33.137,0,0,0-32.955,33.279c0,.184,0,.368,0,.553l-.031,127.3a33.147,33.147,0,0,0,33.092,33.15c10.036.016,19.382.034,19.382.034s7.63.238,42.187.3c4.822.007,39.166.043,66.061.072a33.138,33.138,0,0,0,33.171-32.876Z" transform="translate(172.152 111.579)" fill="#00bf9a"/>
        <path id="패스_5" data-name="패스 5" d="M156.555,82.251,212.308,138c4.108,4.108,4.063,13.355,4.149,13.441l5.871,6.547c4.236,4.238,5.424,11.541,1.186,15.779s-10.806,2.138-15.492-1.6a52.09,52.09,0,0,1-4.616-5.238c-6.229,3.852-14.7.865-18.818-3.232-30.536-30.359-53.35-56.137-53.35-56.137Z" transform="translate(163.54 102.495)" fill="#fff"/>
        <path id="패스_2" data-name="패스 2" d="M181.543,89.814c14.382-.153,25.026-.267,32.832-.27l31.491,0a33.14,33.14,0,0,1,33.144,33.142v.323l-.517,64.286H181.543Z" transform="translate(226.225 111.58)" fill="#ff4931"/>
        <path id="패스_3" data-name="패스 3" d="M277.969,197.939A33.136,33.136,0,0,1,244.8,230.813c-23.793-.022-53.4-.054-63.255-.067V133.062h96.949Z" transform="translate(226.225 165.812)" fill="#4d21d3"/>
        <path id="패스_6" data-name="패스 6" d="M193.357,127.6c-.085-.085-.04-9.333-4.149-13.441L176.444,101.39l-26.668,26.668q5.62,5.731,11.714,11.8c4.119,4.095,12.589,7.084,18.818,3.232a52.378,52.378,0,0,0,4.616,5.236c4.685,3.738,11.253,5.835,15.492,1.6s3.05-11.541-1.186-15.779Z" transform="translate(186.639 126.344)" fill="#00bf9a"/>
        <path id="패스_9" data-name="패스 9" d="M134.5,94.584q13.3,13.524,26.608,27.043l13.3,13.524c4.079,4.144,8.005,8.627,12.538,12.289,4.295,3.47,10.523,6.262,15.93,3.636,2.406-1.17,4.524,2.428,2.107,3.6-5.285,2.565-11.343,1.7-16.37-1.087-5.177-2.871-9.225-7.43-13.329-11.6l-27.883-28.342L131.55,97.536c-1.885-1.916,1.065-4.87,2.951-2.951" transform="translate(163.173 117.088)"/>
        <path id="패스_4" data-name="패스 4" d="M138.15,197.26l.016-64.2h97.45v97.686l-2.805,0c-34.557-.061-42.187-.3-42.187-.3s-9.346-.018-19.38-.034a33.146,33.146,0,0,1-33.094-33.15" transform="translate(172.152 165.81)" fill="#ecbb3f"/>
        <path id="패스_8" data-name="패스 8" d="M146.523,83.414q13.109,13.069,26.217,26.14l13.019,12.978c4.122,4.11,8.522,8.075,12.291,12.518,4.027,4.746,6.772,10.514,5.73,16.893-.377,2.322-4.5,1.518-4.023-1.11.91-4.993-1.947-9.753-5.108-13.355-3.695-4.211-7.875-8.041-11.842-12q-12.557-12.52-25.118-25.042L143.572,86.363c-1.9-1.9,1.047-4.847,2.951-2.949" transform="translate(178.142 103.181)"/>
        <path id="패스_7" data-name="패스 7" d="M127.962,113.018c-7.289,7.289-.663,20.442,9.627,18.382a12.992,12.992,0,0,0,5.851-2.906c.115-.1.229-.2.341-.3,10.352-9.479,19.833-19.844,29.743-29.759q1.8-1.8,3.6-3.6A10.877,10.877,0,0,0,179.9,84.782a11.034,11.034,0,0,0-10.755-8.632,11.723,11.723,0,0,0-7.343,3.084,27.629,27.629,0,0,0-15.393-6.783c-10.55-.984-19.957,5.591-23.459,15.422-3.05,8.562-.548,18.16,5.164,24.995-.049.049-.1.1-.15.15" transform="translate(151.577 90.162)" fill="#4d21d3"/>
        <path id="패스_10" data-name="패스 10" d="M166.017,128.5c2.594,2.527,5.29,5.242,8.731,6.583,2.826,1.1,6.9,1.339,8.87-1.465,2-2.85.6-6.7-.836-9.461a27.084,27.084,0,0,0-6.714-8.261,2.1,2.1,0,0,1,0-2.949,2.133,2.133,0,0,1,2.951,0,30.392,30.392,0,0,1,6.7,7.9c1.779,3.032,3.324,6.628,3.005,10.22a9.348,9.348,0,0,1-5.24,7.893,12.97,12.97,0,0,1-10.48-.106c-3.888-1.622-6.956-4.5-9.932-7.4-1.927-1.876,1.024-4.825,2.949-2.949" transform="translate(202.421 140.011)"/>
        <path id="패스_11" data-name="패스 11" d="M138.187,133.957,112.2,141.911c-2.558.784-1.467,4.811,1.11,4.023q12.995-3.976,25.988-7.954c2.561-.784,1.469-4.811-1.11-4.023" transform="translate(137.999 166.801)" fill="#ff4931"/>
        <path id="패스_12" data-name="패스 12" d="M182.725,61.938Q179.4,74.377,176.076,86.82c-.694,2.6,3.329,3.7,4.023,1.107q3.325-12.439,6.649-24.88c.694-2.6-3.329-3.706-4.023-1.11" transform="translate(219.313 75.339)" fill="#ff4931"/>
        <path id="패스_13" data-name="패스 13" d="M.653,257.076s23.259-63.383,32.58-82.556,36.039-75.9,45.36-88.416c3.122-4.194,28.445-38.429,54.772-57.168,36.663-26.1,57.211-33.5,70.663-25.035,14.38,9.056,12.071,23.254,4.793,32.935-5.851,7.785-26.63,28.434-26.63,28.434l4.9,3.109s15.267-4.926,27.12,3.419c0,0,26.3-13.8,51.93-10.918s44.107,9.876,60.187,27.075c14.025,15,20.065,22.562,22.814,36.306,1.864,9.321,4.526,26.868-9.054,39.783s-30.284,1.977-33.146-.22-13.275-11.109-18.787-17.814c-6.658-8.1-13.915-13.692-18.241-13.692a62.691,62.691,0,0,1,3.36,19.2c.144,10.674-10.411,35.743-30.192,42.382-27.962,9.389-42.71-6.563-42.71-6.563s-5.743,10.332-5.126,19.308c.517,7.536,1.6,17.843,15.444,18.308s25.233-9.319,33.622-11.372c7.3-1.786,34.887-7,47.672,11.107,10.658,15.1,4.849,32.948-14.582,33.622-20.783.719-27.829,22.169-43.143,34.155-7.1,5.555-20.372,14.647-42.741,9.654-13.09-2.922-20.617-4.928-20.617-4.928l-13.971,31.293Z" transform="translate(0.814 0.702)" fill="#ffa1bc"/>
        <path id="패스_14" data-name="패스 14" d="M69.56,162.694l13.989-29.667c1.143-2.428,4.742-.312,3.6,2.1Q80.157,149.966,73.163,164.8c-1.146,2.428-4.742.312-3.6-2.1" transform="translate(86.406 164.429)"/>
        <path id="패스_15" data-name="패스 15" d="M97.443,70.857A2.153,2.153,0,0,1,100.01,69.4c3.551.523,8.7,1.047,12.257,1.568a2.091,2.091,0,0,1,1.455,2.567,2.147,2.147,0,0,1-2.563,1.458c-3.556-.523-8.706-1.047-12.259-1.568a2.1,2.1,0,0,1-1.458-2.567" transform="translate(121.329 86.436)"/>
        <path id="패스_16" data-name="패스 16" d="M91.474,115.506a45.784,45.784,0,0,0,37.683,5.842A44.705,44.705,0,0,0,157.6,60.905a2.157,2.157,0,0,1,.748-2.855,2.1,2.1,0,0,1,2.855.748c7.289,16.859,4.67,36.96-7.212,51.07a49.055,49.055,0,0,1-46.055,16.6,49.614,49.614,0,0,1-18.957-7.819,5.957,5.957,0,0,0,2.491-3.142" transform="translate(110.884 72.007)"/>
        <path id="패스_17" data-name="패스 17" d="M.333,115.259a2.135,2.135,0,0,1,2.855-.748s146.429,65.461,155.277,69.446a2.075,2.075,0,0,1-1.714,3.78S11.442,122.77,1.081,118.114a2.1,2.1,0,0,1-.748-2.855" transform="translate(0.081 142.385)"/>
        <path id="패스_18" data-name="패스 18" d="M144.224,55.9A27.539,27.539,0,0,1,155.34,43.416c2.318-1.341,4.64,2.125,2.314,3.473a24.617,24.617,0,0,0-11.929,21.491c.157,8.9,5.674,16.5,13.611,20.276a23.366,23.366,0,0,0,14.382,2.015,2.158,2.158,0,0,1,2.648,1.3,2.1,2.1,0,0,1-1.3,2.648,28.916,28.916,0,0,1-27.719-10.175c-6.595-8.021-7.322-19.243-3.12-28.544" transform="translate(176.458 53.724)"/>
        <path id="패스_19" data-name="패스 19" d="M163.064,119.481c-3.827-12.14-16.72-18.007-28.764-16.864-6.269.593-12.589,2.565-17.416,6.743a24.667,24.667,0,0,0-7.9,15.253c-1.026,7.435,1.065,14.905,4.777,21.329,1.343,2.323,4.95.225,3.6-2.107-5.269-9.119-6.815-21.605.847-29.95,3.713-4.045,9.041-6.04,14.362-6.882a27.308,27.308,0,0,1,16.078,2.035,19.8,19.8,0,0,1,10.386,11.552c.8,2.552,4.834,1.462,4.023-1.11" transform="translate(135.488 127.698)"/>
        <path id="패스_20" data-name="패스 20" d="M209,5.406c-6.875-5.3-15.943-6.255-24.276-4.78-8.693,1.543-16.691,5.806-24.294,10.11A241.923,241.923,0,0,0,139.992,23.7a248.977,248.977,0,0,0-36.67,31.682q-5.3,5.576-10.249,11.471T83.547,78.944q-4.774,6.469-9.117,13.241c-2.835,4.391-5.519,8.872-8.138,13.394q-4.077,7.055-7.954,14.22c-8.868,16.341-16.929,32.924-24.4,49.767-7.446,16.8-14.3,33.851-20.7,51.072Q6.358,239.2.108,257.987a2.078,2.078,0,1,0,3.94,1.323c4.744-14.211,9.712-28.348,15.009-42.364C25.411,200.14,32.216,183.5,39.6,167.118q11.007-24.433,23.854-47.984,3.928-7.159,8.046-14.222,4.026-6.88,8.439-13.54,4.269-6.442,8.949-12.605t9.739-12.01c.858-.993,1.73-1.979,2.6-2.96a243.737,243.737,0,0,1,33.849-31.34q9.292-7.079,19.234-13.245c6.743-4.18,13.7-8.338,21.044-11.392,7.7-3.205,16.415-5.022,24.573-2.482,6.516,2.03,12.363,7.428,13.4,14.4,1.105,7.41-3.592,14.209-8.187,19.517-5.808,6.709-12.187,12.965-18.306,19.386l-4.771,5.007c-1.855,1.943,1.094,4.9,2.947,2.949,6.649-6.976,13.342-13.917,19.948-20.936,5.317-5.656,11.017-12.226,12.354-20.141,1.321-7.848-2.093-15.31-8.32-20.11" transform="translate(0 0)"/>
        <path id="패스_21" data-name="패스 21" d="M110.177,2.964a22.955,22.955,0,0,1-9.7,18.209,22.081,22.081,0,0,1-20.361,2.37,22.446,22.446,0,0,1-9.768-7.057,2.1,2.1,0,0,0-2.949,0,2.132,2.132,0,0,0,0,2.949A27.1,27.1,0,0,0,89.67,29.16a26.239,26.239,0,0,0,20.774-12.729A26.561,26.561,0,0,0,114.35,2.964c.031-2.686-4.142-2.686-4.173,0" transform="translate(83.246 1.183)"/>
        <path id="패스_22" data-name="패스 22" d="M129.232,33.742c-15.685-8-34.359-4.429-48.321,5.431a70.224,70.224,0,0,0-10.752,9.4c-1.835,1.959,1.11,4.915,2.949,2.951C83.73,40.186,98.379,32.16,114.3,33.645a35.641,35.641,0,0,1,12.828,3.7c2.385,1.217,4.5-2.381,2.1-3.6" transform="translate(86.704 36.569)"/>
        <path id="패스_23" data-name="패스 23" d="M113.406,32.957a39.646,39.646,0,0,0-44.26,1.112,40.811,40.811,0,0,0-9.009,8.978,2.1,2.1,0,0,0,.748,2.853,2.134,2.134,0,0,0,2.855-.748,35.416,35.416,0,0,1,36.311-13.376A35.982,35.982,0,0,1,111.3,36.559c2.269,1.455,4.362-2.156,2.109-3.6" transform="translate(74.56 33.331)"/>
        <path id="패스_24" data-name="패스 24" d="M255.141,83.939a92.56,92.56,0,0,0-21.41-30.062c-17.437-16.513-40.774-26.693-64.854-27.331a100.4,100.4,0,0,0-68.316,24.9q-3.376,2.978-6.444,6.273c-1.833,1.961,1.112,4.917,2.949,2.951A95.86,95.86,0,0,1,160.3,30.886a94.845,94.845,0,0,1,87.1,46.946c6.348,11.046,10.741,24.285,7.408,37.016a30.087,30.087,0,0,1-8.3,14.443,23.4,23.4,0,0,1-17.109,6.343c-13.448-.728-23.018-12.291-31.282-21.556-8.421-9.445-18.56-19.377-32-19.948-13.749-.586-25.3,8.65-33.865,18.42-2.334,2.664-4.649,5.388-6.77,8.228-2.037,2.729-4.043,5.478-5.945,8.3q-2.864,4.262-5.46,8.695t-4.89,9.034c-.07.137-.137.276-.207.413-1.343,2.689-2.639,5.4-3.854,8.153a105.32,105.32,0,0,0-3.863,9.957,29.775,29.775,0,0,0-1.314,15.491,17.18,17.18,0,0,0,7.718,11.134c7.929,4.915,18.084,2.956,26.093-.591,4.894-2.167,9.528-4.881,14.463-6.956a47.521,47.521,0,0,1,15.188-3.648c9.807-.667,20.172,1.606,28.294,7.3,6.734,4.719,11.931,12.381,10.763,20.907a17.11,17.11,0,0,1-4.737,10c-3.394,3.335-8.183,3.924-12.7,4.409-5.182.555-10,1.523-14.631,4a48.708,48.708,0,0,0-11.552,9.045c-6.927,7.062-12.284,15.536-19.622,22.214-7.722,7.03-17.535,10.161-27.863,10.411-11.345.274-22.441-2.751-33.306-5.66-2.6-.7-3.515,3.378-.93,4.07,2.74.732,5.483,1.467,8.237,2.154,10.867,2.707,22.241,4.715,33.434,2.972a45.641,45.641,0,0,0,15.121-4.98,49.245,49.245,0,0,0,11.74-9.447c6.893-7.275,12.349-15.885,20-22.439a33.22,33.22,0,0,1,12.5-7.03c5.132-1.426,10.608-1,15.689-2.684,8.4-2.776,13.005-11.21,12.935-19.761-.072-9.279-6.047-17.082-13.461-22.1-8.439-5.707-19.092-8.106-29.188-7.608a50.709,50.709,0,0,0-15.694,3.291c-5.072,1.956-9.782,4.7-14.7,6.988-4.337,2.019-8.854,3.679-13.677,3.872-3.967.157-8.288-.6-11.466-3.142a13.118,13.118,0,0,1-3.32-3.9,14.1,14.1,0,0,1-1.6-5.18,22.1,22.1,0,0,1,.139-5.633,38.5,38.5,0,0,1,1.3-5.705,108.241,108.241,0,0,1,5.209-13.25q1.6-3.531,3.4-6.963t3.753-6.772q1.951-3.322,4.041-6.559,2.9-4.5,6.08-8.807c1.792-2.424,3.742-4.742,5.685-7.046,1.837-2.181,3.731-4.317,5.734-6.35a61.425,61.425,0,0,1,6.336-5.649,40.661,40.661,0,0,1,7.125-4.42,32.367,32.367,0,0,1,8.052-2.644c13.614-2.525,24.611,7.262,33.058,16.592,8.883,9.811,18.088,21.394,31.859,24.043a27.219,27.219,0,0,0,19.815-3.8,31.123,31.123,0,0,0,11.4-13.49c5.53-12.331,3.7-25.979-1.525-38.079" transform="translate(94.187 33.039)"/>
      </g>
    </g>
    <g id="그룹_4" data-name="그룹 4" transform="translate(988.161 734.499)">
      <g id="그룹_3" data-name="그룹 3" transform="translate(0 0)" clip-path="url(#clip-path-2)">
        <path id="패스_25" data-name="패스 25" d="M34.8,18.163A35.553,35.553,0,0,1,18.93,3.28c-.513-.971-.807-2.265-1.736-2.942a2.06,2.06,0,0,0-1.551-.3c-1.988.333-2.338,1.727-2.708,3.45a26.218,26.218,0,0,1-2.916,7.708,25.984,25.984,0,0,1-7.034,7.883A24.452,24.452,0,0,1,.858,20.484a1.773,1.773,0,0,0,0,3.037A31.718,31.718,0,0,1,17.343,44.7a1.772,1.772,0,0,0,3.391,0,46.05,46.05,0,0,1,14.419-23.78,1.766,1.766,0,0,0-.356-2.761m-15.79,20.16A35.3,35.3,0,0,0,5.088,21.884,29.324,29.324,0,0,0,16.044,5.327,39.262,39.262,0,0,0,30.893,20.083a49.37,49.37,0,0,0-11.886,18.24" transform="translate(0 -0.001)" fill="#00bf9a"/>
      </g>
    </g>
    <g id="그룹_5" data-name="그룹 5" transform="translate(482.927 910.408)">
      <g id="그룹_3-2" data-name="그룹 3" transform="translate(0 0)" clip-path="url(#clip-path-3)">
        <path id="패스_25-2" data-name="패스 25" d="M34.8,18.163A35.553,35.553,0,0,1,18.93,3.28c-.513-.971-.807-2.265-1.736-2.942a2.06,2.06,0,0,0-1.551-.3c-1.988.333-2.338,1.727-2.708,3.45a26.218,26.218,0,0,1-2.916,7.708,25.984,25.984,0,0,1-7.034,7.883A24.452,24.452,0,0,1,.858,20.484a1.773,1.773,0,0,0,0,3.037A31.718,31.718,0,0,1,17.343,44.7a1.772,1.772,0,0,0,3.391,0,46.05,46.05,0,0,1,14.419-23.78,1.766,1.766,0,0,0-.356-2.761m-15.79,20.16A35.3,35.3,0,0,0,5.088,21.884,29.324,29.324,0,0,0,16.044,5.327,39.262,39.262,0,0,0,30.893,20.083a49.37,49.37,0,0,0-11.886,18.24" transform="translate(0 -0.001)" fill="#ecbb3f"/>
      </g>
    </g>
    <g id="그룹_6" data-name="그룹 6" transform="translate(556.626 609.937)">
      <g id="그룹_3-3" data-name="그룹 3" transform="translate(0 0)" clip-path="url(#clip-path-4)">
        <path id="패스_25-3" data-name="패스 25" d="M23.51,12.271A24.021,24.021,0,0,1,12.789,2.216c-.347-.656-.545-1.53-1.173-1.988a1.392,1.392,0,0,0-1.048-.2C9.225.248,8.988,1.19,8.739,2.354a17.714,17.714,0,0,1-1.97,5.208,17.556,17.556,0,0,1-4.753,5.326A16.521,16.521,0,0,1,.58,13.84a1.2,1.2,0,0,0,0,2.052A21.43,21.43,0,0,1,11.717,30.2a1.2,1.2,0,0,0,2.291,0A31.112,31.112,0,0,1,23.75,14.136a1.193,1.193,0,0,0-.241-1.865M12.842,25.892a23.847,23.847,0,0,0-9.4-11.107A19.812,19.812,0,0,0,10.84,3.6a26.526,26.526,0,0,0,10.032,9.97,33.356,33.356,0,0,0-8.03,12.324" transform="translate(0 0)" fill="#ff4931"/>
      </g>
    </g>
    <g id="사각형_4" data-name="사각형 4" transform="translate(449.876 560.686)" fill="#fff" stroke="#707070" stroke-width="1" opacity="0">
      <rect width="644" height="493" stroke="none"/>
      <rect x="0.5" y="0.5" width="643" height="492" fill="none"/>
    </g>
  </g>
</svg>
